<mxfile host="app.diagrams.net" modified="2024-05-08T07:36:27.953Z" agent="Mozilla/5.0 (Macintosh; Intel Mac OS X 10_15_7) AppleWebKit/537.36 (KHTML, like Gecko) Chrome/124.0.0.0 Safari/537.36" etag="o_nRh2uGclrrakGobx1-" version="24.3.1" type="github">
  <diagram id="C5RBs43oDa-KdzZeNtuy" name="Page-1">
    <mxGraphModel dx="794" dy="450" grid="1" gridSize="10" guides="1" tooltips="1" connect="1" arrows="1" fold="1" page="1" pageScale="1" pageWidth="827" pageHeight="1169" math="0" shadow="0">
      <root>
        <mxCell id="WIyWlLk6GJQsqaUBKTNV-0" />
        <mxCell id="WIyWlLk6GJQsqaUBKTNV-1" parent="WIyWlLk6GJQsqaUBKTNV-0" />
        <mxCell id="zkfFHV4jXpPFQw0GAbJ--0" value="ClusterManager" style="swimlane;fontStyle=1;align=center;verticalAlign=top;childLayout=stackLayout;horizontal=1;startSize=26;horizontalStack=0;resizeParent=1;resizeLast=0;collapsible=1;marginBottom=0;rounded=0;shadow=0;strokeWidth=1;" parent="WIyWlLk6GJQsqaUBKTNV-1" vertex="1">
          <mxGeometry x="40" y="70" width="500" height="184" as="geometry">
            <mxRectangle x="230" y="140" width="160" height="26" as="alternateBounds" />
          </mxGeometry>
        </mxCell>
        <mxCell id="1U5wIqQ8QYXrG_4uOh2t-3" value="-&amp;nbsp;&lt;span style=&quot;text-wrap: nowrap;&quot;&gt;clusters_:&amp;nbsp;&lt;/span&gt;&lt;span style=&quot;color: rgb(193, 132, 1); background-color: rgb(199, 237, 204); font-family: Menlo, Monaco, &amp;quot;Courier New&amp;quot;, monospace; white-space: pre;&quot;&gt;DoublyBufferedData&amp;lt;&lt;/span&gt;&lt;span style=&quot;text-wrap: nowrap; background-color: initial;&quot;&gt;unordered_map&amp;lt;string, std::shard_ptr&amp;lt;Cluster&amp;gt;&amp;gt;&amp;gt;&amp;gt;&lt;/span&gt;" style="text;strokeColor=none;fillColor=none;align=left;verticalAlign=top;spacingLeft=4;spacingRight=4;overflow=hidden;rotatable=0;points=[[0,0.5],[1,0.5]];portConstraint=eastwest;whiteSpace=wrap;html=1;" parent="zkfFHV4jXpPFQw0GAbJ--0" vertex="1">
          <mxGeometry y="26" width="500" height="26" as="geometry" />
        </mxCell>
        <mxCell id="zkfFHV4jXpPFQw0GAbJ--3" value="global_rate_limiter_:std::unique_ptr&lt;RateLimiter&gt;" style="text;align=left;verticalAlign=top;spacingLeft=4;spacingRight=4;overflow=hidden;rotatable=0;points=[[0,0.5],[1,0.5]];portConstraint=eastwest;rounded=0;shadow=0;html=0;" parent="zkfFHV4jXpPFQw0GAbJ--0" vertex="1">
          <mxGeometry y="52" width="500" height="26" as="geometry" />
        </mxCell>
        <mxCell id="zkfFHV4jXpPFQw0GAbJ--4" value="" style="line;html=1;strokeWidth=1;align=left;verticalAlign=middle;spacingTop=-1;spacingLeft=3;spacingRight=3;rotatable=0;labelPosition=right;points=[];portConstraint=eastwest;" parent="zkfFHV4jXpPFQw0GAbJ--0" vertex="1">
          <mxGeometry y="78" width="500" height="8" as="geometry" />
        </mxCell>
        <mxCell id="zkfFHV4jXpPFQw0GAbJ--5" value="+ GetCluster(cluster_name: string): std::shard_ptr&lt;Cluster&gt;" style="text;align=left;verticalAlign=top;spacingLeft=4;spacingRight=4;overflow=hidden;rotatable=0;points=[[0,0.5],[1,0.5]];portConstraint=eastwest;" parent="zkfFHV4jXpPFQw0GAbJ--0" vertex="1">
          <mxGeometry y="86" width="500" height="26" as="geometry" />
        </mxCell>
        <mxCell id="1U5wIqQ8QYXrG_4uOh2t-8" value="+ AddCluster(cluster_name: string, manager_url:string):bool" style="text;align=left;verticalAlign=top;spacingLeft=4;spacingRight=4;overflow=hidden;rotatable=0;points=[[0,0.5],[1,0.5]];portConstraint=eastwest;" parent="zkfFHV4jXpPFQw0GAbJ--0" vertex="1">
          <mxGeometry y="112" width="500" height="26" as="geometry" />
        </mxCell>
        <mxCell id="1U5wIqQ8QYXrG_4uOh2t-9" value="+ DelCluster(cluster_name: string):bool" style="text;align=left;verticalAlign=top;spacingLeft=4;spacingRight=4;overflow=hidden;rotatable=0;points=[[0,0.5],[1,0.5]];portConstraint=eastwest;" parent="zkfFHV4jXpPFQw0GAbJ--0" vertex="1">
          <mxGeometry y="138" width="500" height="26" as="geometry" />
        </mxCell>
        <mxCell id="zkfFHV4jXpPFQw0GAbJ--17" value="Cluster" style="swimlane;fontStyle=1;align=center;verticalAlign=top;childLayout=stackLayout;horizontal=1;startSize=26;horizontalStack=0;resizeParent=1;resizeLast=0;collapsible=1;marginBottom=0;rounded=0;shadow=0;strokeWidth=1;" parent="WIyWlLk6GJQsqaUBKTNV-1" vertex="1">
          <mxGeometry x="610" y="90" width="590" height="242" as="geometry">
            <mxRectangle x="550" y="140" width="160" height="26" as="alternateBounds" />
          </mxGeometry>
        </mxCell>
        <mxCell id="zkfFHV4jXpPFQw0GAbJ--18" value="manager_client_:StorageManagerClient" style="text;align=left;verticalAlign=top;spacingLeft=4;spacingRight=4;overflow=hidden;rotatable=0;points=[[0,0.5],[1,0.5]];portConstraint=eastwest;" parent="zkfFHV4jXpPFQw0GAbJ--17" vertex="1">
          <mxGeometry y="26" width="590" height="26" as="geometry" />
        </mxCell>
        <mxCell id="zkfFHV4jXpPFQw0GAbJ--19" value="table_cache:TableCache" style="text;align=left;verticalAlign=top;spacingLeft=4;spacingRight=4;overflow=hidden;rotatable=0;points=[[0,0.5],[1,0.5]];portConstraint=eastwest;rounded=0;shadow=0;html=0;" parent="zkfFHV4jXpPFQw0GAbJ--17" vertex="1">
          <mxGeometry y="52" width="590" height="26" as="geometry" />
        </mxCell>
        <mxCell id="zkfFHV4jXpPFQw0GAbJ--20" value="worker_channel_manager:WorkerChannelManager" style="text;align=left;verticalAlign=top;spacingLeft=4;spacingRight=4;overflow=hidden;rotatable=0;points=[[0,0.5],[1,0.5]];portConstraint=eastwest;rounded=0;shadow=0;html=0;" parent="zkfFHV4jXpPFQw0GAbJ--17" vertex="1">
          <mxGeometry y="78" width="590" height="26" as="geometry" />
        </mxCell>
        <mxCell id="zkfFHV4jXpPFQw0GAbJ--23" value="" style="line;html=1;strokeWidth=1;align=left;verticalAlign=middle;spacingTop=-1;spacingLeft=3;spacingRight=3;rotatable=0;labelPosition=right;points=[];portConstraint=eastwest;" parent="zkfFHV4jXpPFQw0GAbJ--17" vertex="1">
          <mxGeometry y="104" width="590" height="8" as="geometry" />
        </mxCell>
        <mxCell id="zkfFHV4jXpPFQw0GAbJ--24" value="GetWorkerListByShardID(table_str: const std::string&amp;, shard_id: const std::string&amp;): std::vector&lt;std::string&gt;" style="text;align=left;verticalAlign=top;spacingLeft=4;spacingRight=4;overflow=hidden;rotatable=0;points=[[0,0.5],[1,0.5]];portConstraint=eastwest;" parent="zkfFHV4jXpPFQw0GAbJ--17" vertex="1">
          <mxGeometry y="112" width="590" height="26" as="geometry" />
        </mxCell>
        <mxCell id="zkfFHV4jXpPFQw0GAbJ--25" value="GetShardIDBySlotID(table_str: const std::string&amp;, slot_id: const unsigned long&amp;):std::string" style="text;align=left;verticalAlign=top;spacingLeft=4;spacingRight=4;overflow=hidden;rotatable=0;points=[[0,0.5],[1,0.5]];portConstraint=eastwest;" parent="zkfFHV4jXpPFQw0GAbJ--17" vertex="1">
          <mxGeometry y="138" width="590" height="26" as="geometry" />
        </mxCell>
        <mxCell id="1U5wIqQ8QYXrG_4uOh2t-49" value="GetTableSchemaHash(table: schema::Table&amp;)" style="text;align=left;verticalAlign=top;spacingLeft=4;spacingRight=4;overflow=hidden;rotatable=0;points=[[0,0.5],[1,0.5]];portConstraint=eastwest;" parent="zkfFHV4jXpPFQw0GAbJ--17" vertex="1">
          <mxGeometry y="164" width="590" height="26" as="geometry" />
        </mxCell>
        <mxCell id="1U5wIqQ8QYXrG_4uOh2t-50" value="GetTableDefaultVersion(table: schema::Table&amp;, force_default_version: bool)" style="text;align=left;verticalAlign=top;spacingLeft=4;spacingRight=4;overflow=hidden;rotatable=0;points=[[0,0.5],[1,0.5]];portConstraint=eastwest;" parent="zkfFHV4jXpPFQw0GAbJ--17" vertex="1">
          <mxGeometry y="190" width="590" height="26" as="geometry" />
        </mxCell>
        <mxCell id="1U5wIqQ8QYXrG_4uOh2t-87" value="GetFullTable(table: const schema::Table&amp;): std::optional&lt;schema::Table&gt;" style="text;align=left;verticalAlign=top;spacingLeft=4;spacingRight=4;overflow=hidden;rotatable=0;points=[[0,0.5],[1,0.5]];portConstraint=eastwest;" parent="zkfFHV4jXpPFQw0GAbJ--17" vertex="1">
          <mxGeometry y="216" width="590" height="26" as="geometry" />
        </mxCell>
        <mxCell id="1U5wIqQ8QYXrG_4uOh2t-2" value="" style="endArrow=diamondThin;endFill=1;endSize=24;html=1;rounded=0;exitX=1.003;exitY=0.079;exitDx=0;exitDy=0;entryX=0;entryY=0.5;entryDx=0;entryDy=0;exitPerimeter=0;" parent="WIyWlLk6GJQsqaUBKTNV-1" source="zkfFHV4jXpPFQw0GAbJ--0" target="zkfFHV4jXpPFQw0GAbJ--18" edge="1">
          <mxGeometry width="160" relative="1" as="geometry">
            <mxPoint x="380" y="159" as="sourcePoint" />
            <mxPoint x="530" y="170" as="targetPoint" />
          </mxGeometry>
        </mxCell>
        <mxCell id="1U5wIqQ8QYXrG_4uOh2t-10" value="&lt;div style=&quot;font-family: Menlo, Monaco, &amp;quot;Courier New&amp;quot;, monospace; line-height: 18px; white-space: pre;&quot;&gt;&lt;span style=&quot;background-color: rgb(185, 224, 165); font-weight: normal;&quot;&gt;&lt;font color=&quot;#999900&quot;&gt;TableCache&lt;/font&gt;&lt;/span&gt;&lt;/div&gt;" style="swimlane;fontStyle=1;align=center;verticalAlign=top;childLayout=stackLayout;horizontal=1;startSize=26;horizontalStack=0;resizeParent=1;resizeParentMax=0;resizeLast=0;collapsible=1;marginBottom=0;whiteSpace=wrap;html=1;" parent="WIyWlLk6GJQsqaUBKTNV-1" vertex="1">
          <mxGeometry x="1260" y="305" width="710" height="268" as="geometry" />
        </mxCell>
        <mxCell id="1U5wIqQ8QYXrG_4uOh2t-32" value="+&amp;nbsp;&lt;span style=&quot;color: rgb(228, 86, 73); background-color: rgb(199, 237, 204); font-family: Menlo, Monaco, &amp;quot;Courier New&amp;quot;, monospace; white-space: pre;&quot;&gt;manager_client&lt;/span&gt;&lt;span style=&quot;background-color: initial;&quot;&gt;:&amp;nbsp;&lt;/span&gt;&lt;span style=&quot;background-color: initial; font-family: Menlo, Monaco, &amp;quot;Courier New&amp;quot;, monospace; white-space: pre; color: rgb(64, 120, 242);&quot;&gt;const &lt;/span&gt;&lt;span style=&quot;background-color: initial; font-family: Menlo, Monaco, &amp;quot;Courier New&amp;quot;, monospace; white-space: pre; color: rgb(193, 132, 1); text-align: center;&quot;&gt;StorageManagerClient&amp;amp;&lt;/span&gt;" style="text;strokeColor=none;fillColor=none;align=left;verticalAlign=top;spacingLeft=4;spacingRight=4;overflow=hidden;rotatable=0;points=[[0,0.5],[1,0.5]];portConstraint=eastwest;whiteSpace=wrap;html=1;" parent="1U5wIqQ8QYXrG_4uOh2t-10" vertex="1">
          <mxGeometry y="26" width="710" height="24" as="geometry" />
        </mxCell>
        <mxCell id="1U5wIqQ8QYXrG_4uOh2t-11" value="+&amp;nbsp;&lt;span style=&quot;color: rgb(228, 86, 73); background-color: rgb(199, 237, 204); font-family: Menlo, Monaco, &amp;quot;Courier New&amp;quot;, monospace; white-space: pre;&quot;&gt;cache_maps_dbd_&lt;/span&gt;&lt;span style=&quot;background-color: initial;&quot;&gt;:&amp;nbsp;&lt;/span&gt;&lt;span style=&quot;background-color: rgb(199, 237, 204); color: rgb(56, 58, 66); font-family: Menlo, Monaco, &amp;quot;Courier New&amp;quot;, monospace; white-space: pre;&quot;&gt;butil::&lt;/span&gt;&lt;span style=&quot;font-family: Menlo, Monaco, &amp;quot;Courier New&amp;quot;, monospace; white-space: pre; color: rgb(193, 132, 1);&quot;&gt;DoublyBufferedData&lt;/span&gt;&lt;span style=&quot;font-family: Menlo, Monaco, &amp;quot;Courier New&amp;quot;, monospace; white-space: pre; color: rgb(166, 38, 164);&quot;&gt;&amp;lt;&lt;/span&gt;&lt;span style=&quot;font-family: Menlo, Monaco, &amp;quot;Courier New&amp;quot;, monospace; white-space: pre; color: rgb(193, 132, 1);&quot;&gt;CacheMaps&lt;/span&gt;&lt;span style=&quot;font-family: Menlo, Monaco, &amp;quot;Courier New&amp;quot;, monospace; white-space: pre; color: rgb(166, 38, 164);&quot;&gt;&amp;gt;&lt;/span&gt;" style="text;strokeColor=none;fillColor=none;align=left;verticalAlign=top;spacingLeft=4;spacingRight=4;overflow=hidden;rotatable=0;points=[[0,0.5],[1,0.5]];portConstraint=eastwest;whiteSpace=wrap;html=1;" parent="1U5wIqQ8QYXrG_4uOh2t-10" vertex="1">
          <mxGeometry y="50" width="710" height="24" as="geometry" />
        </mxCell>
        <mxCell id="1U5wIqQ8QYXrG_4uOh2t-17" value="+&amp;nbsp;&lt;span style=&quot;color: rgb(228, 86, 73); background-color: rgb(199, 237, 204); font-family: Menlo, Monaco, &amp;quot;Courier New&amp;quot;, monospace; white-space: pre;&quot;&gt;shard_last_abnormal_ts_dbd_&lt;/span&gt;&lt;span style=&quot;background-color: initial;&quot;&gt;:&lt;/span&gt;&lt;span style=&quot;background-color: rgb(199, 237, 204); color: rgb(56, 58, 66); font-family: Menlo, Monaco, &amp;quot;Courier New&amp;quot;, monospace; white-space: pre;&quot;&gt;butil::&lt;/span&gt;&lt;span style=&quot;font-family: Menlo, Monaco, &amp;quot;Courier New&amp;quot;, monospace; white-space: pre; color: rgb(193, 132, 1);&quot;&gt;DoublyBufferedData&lt;/span&gt;&lt;span style=&quot;font-family: Menlo, Monaco, &amp;quot;Courier New&amp;quot;, monospace; white-space: pre; color: rgb(166, 38, 164);&quot;&gt;&amp;lt;&lt;/span&gt;&lt;span style=&quot;background-color: rgb(199, 237, 204); color: rgb(56, 58, 66); font-family: Menlo, Monaco, &amp;quot;Courier New&amp;quot;, monospace; white-space: pre;&quot;&gt;butil::&lt;/span&gt;&lt;span style=&quot;font-family: Menlo, Monaco, &amp;quot;Courier New&amp;quot;, monospace; white-space: pre; color: rgb(193, 132, 1);&quot;&gt;FlatMap&lt;/span&gt;&lt;span style=&quot;font-family: Menlo, Monaco, &amp;quot;Courier New&amp;quot;, monospace; white-space: pre; color: rgb(166, 38, 164);&quot;&gt;&amp;lt;&lt;/span&gt;&lt;span style=&quot;background-color: rgb(199, 237, 204); color: rgb(56, 58, 66); font-family: Menlo, Monaco, &amp;quot;Courier New&amp;quot;, monospace; white-space: pre;&quot;&gt;std::&lt;/span&gt;&lt;span style=&quot;font-family: Menlo, Monaco, &amp;quot;Courier New&amp;quot;, monospace; white-space: pre; color: rgb(193, 132, 1);&quot;&gt;string&lt;/span&gt;&lt;span style=&quot;background-color: rgb(199, 237, 204); color: rgb(56, 58, 66); font-family: Menlo, Monaco, &amp;quot;Courier New&amp;quot;, monospace; white-space: pre;&quot;&gt;, std::&lt;/span&gt;&lt;span style=&quot;font-family: Menlo, Monaco, &amp;quot;Courier New&amp;quot;, monospace; white-space: pre; color: rgb(1, 132, 188);&quot;&gt;time_t&lt;/span&gt;&lt;span style=&quot;font-family: Menlo, Monaco, &amp;quot;Courier New&amp;quot;, monospace; white-space: pre; color: rgb(166, 38, 164);&quot;&gt;&amp;gt;&amp;gt;&lt;/span&gt;" style="text;strokeColor=none;fillColor=none;align=left;verticalAlign=top;spacingLeft=4;spacingRight=4;overflow=hidden;rotatable=0;points=[[0,0.5],[1,0.5]];portConstraint=eastwest;whiteSpace=wrap;html=1;" parent="1U5wIqQ8QYXrG_4uOh2t-10" vertex="1">
          <mxGeometry y="74" width="710" height="30" as="geometry" />
        </mxCell>
        <mxCell id="1U5wIqQ8QYXrG_4uOh2t-12" value="" style="line;strokeWidth=1;fillColor=none;align=left;verticalAlign=middle;spacingTop=-1;spacingLeft=3;spacingRight=3;rotatable=0;labelPosition=right;points=[];portConstraint=eastwest;strokeColor=inherit;" parent="1U5wIqQ8QYXrG_4uOh2t-10" vertex="1">
          <mxGeometry y="104" width="710" height="8" as="geometry" />
        </mxCell>
        <mxCell id="1U5wIqQ8QYXrG_4uOh2t-31" value="&lt;div style=&quot;color: rgb(56, 58, 66); background-color: rgb(199, 237, 204); font-family: Menlo, Monaco, &amp;quot;Courier New&amp;quot;, monospace; line-height: 18px; white-space: pre;&quot;&gt;&lt;span style=&quot;color: rgb(193, 132, 1); text-align: center;&quot;&gt;TableCache&lt;/span&gt;&lt;span style=&quot;color: #4078f2;&quot;&gt;(client: const &lt;/span&gt;&lt;span style=&quot;color: rgb(193, 132, 1); text-align: center;&quot;&gt;StorageManagerClient&amp;amp;&lt;/span&gt;&lt;span style=&quot;color: rgb(64, 120, 242);&quot;&gt;)&lt;/span&gt;&lt;/div&gt;" style="text;strokeColor=none;fillColor=none;align=left;verticalAlign=top;spacingLeft=4;spacingRight=4;overflow=hidden;rotatable=0;points=[[0,0.5],[1,0.5]];portConstraint=eastwest;whiteSpace=wrap;html=1;" parent="1U5wIqQ8QYXrG_4uOh2t-10" vertex="1">
          <mxGeometry y="112" width="710" height="26" as="geometry" />
        </mxCell>
        <mxCell id="1U5wIqQ8QYXrG_4uOh2t-13" value="&lt;div style=&quot;color: rgb(56, 58, 66); background-color: rgb(199, 237, 204); font-family: Menlo, Monaco, &amp;quot;Courier New&amp;quot;, monospace; line-height: 18px; white-space: pre;&quot;&gt;&lt;span style=&quot;color: #4078f2;&quot;&gt;GetTableCacheThread()&lt;/span&gt;&lt;/div&gt;" style="text;strokeColor=none;fillColor=none;align=left;verticalAlign=top;spacingLeft=4;spacingRight=4;overflow=hidden;rotatable=0;points=[[0,0.5],[1,0.5]];portConstraint=eastwest;whiteSpace=wrap;html=1;" parent="1U5wIqQ8QYXrG_4uOh2t-10" vertex="1">
          <mxGeometry y="138" width="710" height="26" as="geometry" />
        </mxCell>
        <mxCell id="1U5wIqQ8QYXrG_4uOh2t-18" value="&lt;div style=&quot;color: rgb(56, 58, 66); background-color: rgb(199, 237, 204); font-family: Menlo, Monaco, &amp;quot;Courier New&amp;quot;, monospace; line-height: 18px; white-space: pre;&quot;&gt;&lt;div style=&quot;line-height: 18px;&quot;&gt;&lt;span style=&quot;color: #4078f2;&quot;&gt;GetTableDefaultVersion(&lt;/span&gt;table: schema::&lt;span style=&quot;color: rgb(193, 132, 1);&quot;&gt;Table&lt;/span&gt;&lt;span style=&quot;color: rgb(166, 38, 164);&quot;&gt;&amp;amp;, &lt;/span&gt;force_default_version: &lt;span style=&quot;color: rgb(166, 38, 164);&quot;&gt;bool&lt;/span&gt;&lt;span style=&quot;color: rgb(64, 120, 242);&quot;&gt;)&lt;/span&gt;&lt;/div&gt;&lt;/div&gt;" style="text;strokeColor=none;fillColor=none;align=left;verticalAlign=top;spacingLeft=4;spacingRight=4;overflow=hidden;rotatable=0;points=[[0,0.5],[1,0.5]];portConstraint=eastwest;whiteSpace=wrap;html=1;" parent="1U5wIqQ8QYXrG_4uOh2t-10" vertex="1">
          <mxGeometry y="164" width="710" height="26" as="geometry" />
        </mxCell>
        <mxCell id="1U5wIqQ8QYXrG_4uOh2t-19" value="&lt;div style=&quot;color: rgb(56, 58, 66); background-color: rgb(199, 237, 204); font-family: Menlo, Monaco, &amp;quot;Courier New&amp;quot;, monospace; line-height: 18px; white-space: pre;&quot;&gt;&lt;div style=&quot;line-height: 18px;&quot;&gt;&lt;span style=&quot;color: rgb(64, 120, 242);&quot;&gt;GetTableSchemaHash&lt;/span&gt;&lt;span style=&quot;color: #4078f2;&quot;&gt;(&lt;/span&gt;table: schema::&lt;span style=&quot;color: rgb(193, 132, 1);&quot;&gt;Table&lt;/span&gt;&lt;span style=&quot;color: rgb(166, 38, 164);&quot;&gt;&amp;amp;&lt;/span&gt;&lt;span style=&quot;color: rgb(64, 120, 242);&quot;&gt;)&lt;/span&gt;&lt;/div&gt;&lt;/div&gt;" style="text;strokeColor=none;fillColor=none;align=left;verticalAlign=top;spacingLeft=4;spacingRight=4;overflow=hidden;rotatable=0;points=[[0,0.5],[1,0.5]];portConstraint=eastwest;whiteSpace=wrap;html=1;" parent="1U5wIqQ8QYXrG_4uOh2t-10" vertex="1">
          <mxGeometry y="190" width="710" height="26" as="geometry" />
        </mxCell>
        <mxCell id="1U5wIqQ8QYXrG_4uOh2t-20" value="&lt;div style=&quot;color: rgb(56, 58, 66); background-color: rgb(199, 237, 204); font-family: Menlo, Monaco, &amp;quot;Courier New&amp;quot;, monospace; line-height: 18px; white-space: pre;&quot;&gt;&lt;div style=&quot;line-height: 18px;&quot;&gt;&lt;span style=&quot;color: rgb(64, 120, 242);&quot;&gt;GetShardIDBySlotID&lt;/span&gt;&lt;span style=&quot;color: #4078f2;&quot;&gt;(&lt;/span&gt;&lt;span style=&quot;color: rgb(228, 86, 73);&quot;&gt;table_str&lt;/span&gt;: &lt;span style=&quot;color: rgb(166, 38, 164);&quot;&gt;const&lt;/span&gt; std::string&lt;span style=&quot;color: rgb(166, 38, 164);&quot;&gt;&amp;amp;, &lt;/span&gt;slot_id: &lt;span style=&quot;color: rgb(166, 38, 164);&quot;&gt;const&lt;/span&gt; &lt;span style=&quot;color: rgb(166, 38, 164);&quot;&gt;unsigned&lt;/span&gt; &lt;span style=&quot;color: rgb(166, 38, 164);&quot;&gt;long&amp;amp;&lt;/span&gt;&lt;span style=&quot;color: rgb(64, 120, 242);&quot;&gt;): &lt;/span&gt;std::&lt;span style=&quot;color: rgb(193, 132, 1);&quot;&gt;string&lt;/span&gt;&lt;/div&gt;&lt;/div&gt;" style="text;strokeColor=none;fillColor=none;align=left;verticalAlign=top;spacingLeft=4;spacingRight=4;overflow=hidden;rotatable=0;points=[[0,0.5],[1,0.5]];portConstraint=eastwest;whiteSpace=wrap;html=1;" parent="1U5wIqQ8QYXrG_4uOh2t-10" vertex="1">
          <mxGeometry y="216" width="710" height="26" as="geometry" />
        </mxCell>
        <mxCell id="1U5wIqQ8QYXrG_4uOh2t-21" value="&lt;div style=&quot;color: rgb(56, 58, 66); background-color: rgb(199, 237, 204); font-family: Menlo, Monaco, &amp;quot;Courier New&amp;quot;, monospace; line-height: 18px; white-space: pre;&quot;&gt;&lt;div style=&quot;line-height: 18px;&quot;&gt;&lt;span style=&quot;color: rgb(64, 120, 242);&quot;&gt;GetWorkerListByShardID&lt;/span&gt;&lt;span style=&quot;color: rgb(64, 120, 242);&quot;&gt;(&lt;/span&gt;&lt;span style=&quot;color: rgb(228, 86, 73);&quot;&gt;table_str&lt;/span&gt;: &lt;span style=&quot;color: rgb(166, 38, 164);&quot;&gt;const&lt;/span&gt; std::string&lt;span style=&quot;color: rgb(166, 38, 164);&quot;&gt;&amp;amp;, &lt;/span&gt;shard_id: &lt;span style=&quot;color: rgb(166, 38, 164);&quot;&gt;const &lt;/span&gt;std::string&lt;span style=&quot;color: rgb(166, 38, 164);&quot;&gt;&amp;amp;&lt;/span&gt;&lt;span style=&quot;color: rgb(64, 120, 242);&quot;&gt;): &lt;/span&gt;std::&lt;span style=&quot;color: rgb(193, 132, 1);&quot;&gt;vector&lt;/span&gt;&amp;lt;std::&lt;span style=&quot;color: rgb(193, 132, 1);&quot;&gt;string&lt;/span&gt;&amp;gt;&lt;/div&gt;&lt;/div&gt;" style="text;strokeColor=none;fillColor=none;align=left;verticalAlign=top;spacingLeft=4;spacingRight=4;overflow=hidden;rotatable=0;points=[[0,0.5],[1,0.5]];portConstraint=eastwest;whiteSpace=wrap;html=1;" parent="1U5wIqQ8QYXrG_4uOh2t-10" vertex="1">
          <mxGeometry y="242" width="710" height="26" as="geometry" />
        </mxCell>
        <mxCell id="1U5wIqQ8QYXrG_4uOh2t-27" value="&lt;div style=&quot;font-family: Menlo, Monaco, &amp;quot;Courier New&amp;quot;, monospace; line-height: 18px; white-space: pre;&quot;&gt;&lt;span style=&quot;background-color: rgb(185, 224, 165);&quot;&gt;&lt;font color=&quot;#999900&quot;&gt;StorageManagerClient&lt;/font&gt;&lt;/span&gt;&lt;/div&gt;" style="swimlane;fontStyle=1;align=center;verticalAlign=top;childLayout=stackLayout;horizontal=1;startSize=26;horizontalStack=0;resizeParent=1;resizeParentMax=0;resizeLast=0;collapsible=1;marginBottom=0;whiteSpace=wrap;html=1;" parent="WIyWlLk6GJQsqaUBKTNV-1" vertex="1">
          <mxGeometry x="1270" y="90" width="480" height="86" as="geometry" />
        </mxCell>
        <mxCell id="1U5wIqQ8QYXrG_4uOh2t-28" value="+&amp;nbsp;&lt;span style=&quot;color: rgb(228, 86, 73); background-color: rgb(199, 237, 204); font-family: Menlo, Monaco, &amp;quot;Courier New&amp;quot;, monospace; white-space: pre;&quot;&gt;stub&lt;/span&gt;&lt;span style=&quot;background-color: initial;&quot;&gt;:&amp;nbsp;&lt;/span&gt;&lt;span style=&quot;background-color: rgb(199, 237, 204); color: rgb(56, 58, 66); font-family: Menlo, Monaco, &amp;quot;Courier New&amp;quot;, monospace; white-space: pre;&quot;&gt;std::&lt;/span&gt;&lt;span style=&quot;font-family: Menlo, Monaco, &amp;quot;Courier New&amp;quot;, monospace; white-space: pre; color: rgb(193, 132, 1);&quot;&gt;unique_ptr&lt;/span&gt;&lt;span style=&quot;font-family: Menlo, Monaco, &amp;quot;Courier New&amp;quot;, monospace; white-space: pre; color: rgb(166, 38, 164);&quot;&gt;&amp;lt;&lt;/span&gt;&lt;span style=&quot;background-color: rgb(199, 237, 204); color: rgb(56, 58, 66); font-family: Menlo, Monaco, &amp;quot;Courier New&amp;quot;, monospace; white-space: pre;&quot;&gt;schema::&lt;/span&gt;&lt;span style=&quot;font-family: Menlo, Monaco, &amp;quot;Courier New&amp;quot;, monospace; white-space: pre; color: rgb(193, 132, 1);&quot;&gt;StorageManager_Stub&lt;/span&gt;&lt;span style=&quot;font-family: Menlo, Monaco, &amp;quot;Courier New&amp;quot;, monospace; white-space: pre; color: rgb(166, 38, 164);&quot;&gt;&amp;gt;&lt;/span&gt;" style="text;strokeColor=none;fillColor=none;align=left;verticalAlign=top;spacingLeft=4;spacingRight=4;overflow=hidden;rotatable=0;points=[[0,0.5],[1,0.5]];portConstraint=eastwest;whiteSpace=wrap;html=1;" parent="1U5wIqQ8QYXrG_4uOh2t-27" vertex="1">
          <mxGeometry y="26" width="480" height="26" as="geometry" />
        </mxCell>
        <mxCell id="1U5wIqQ8QYXrG_4uOh2t-29" value="" style="line;strokeWidth=1;fillColor=none;align=left;verticalAlign=middle;spacingTop=-1;spacingLeft=3;spacingRight=3;rotatable=0;labelPosition=right;points=[];portConstraint=eastwest;strokeColor=inherit;" parent="1U5wIqQ8QYXrG_4uOh2t-27" vertex="1">
          <mxGeometry y="52" width="480" height="8" as="geometry" />
        </mxCell>
        <mxCell id="1U5wIqQ8QYXrG_4uOh2t-30" value="+&amp;nbsp;&lt;span style=&quot;color: rgb(64, 120, 242); background-color: rgb(199, 237, 204); font-family: Menlo, Monaco, &amp;quot;Courier New&amp;quot;, monospace; white-space: pre;&quot;&gt;Init&lt;/span&gt;&lt;span style=&quot;background-color: initial;&quot;&gt;(&lt;/span&gt;&lt;span style=&quot;background-color: rgb(199, 237, 204); color: rgb(56, 58, 66); font-family: Menlo, Monaco, &amp;quot;Courier New&amp;quot;, monospace; white-space: pre;&quot;&gt;address:&lt;/span&gt;&lt;span style=&quot;font-family: Menlo, Monaco, &amp;quot;Courier New&amp;quot;, monospace; white-space: pre; color: rgb(166, 38, 164);&quot;&gt;const&lt;/span&gt;&lt;span style=&quot;background-color: rgb(199, 237, 204); color: rgb(56, 58, 66); font-family: Menlo, Monaco, &amp;quot;Courier New&amp;quot;, monospace; white-space: pre;&quot;&gt; std::&lt;/span&gt;&lt;span style=&quot;font-family: Menlo, Monaco, &amp;quot;Courier New&amp;quot;, monospace; white-space: pre; color: rgb(193, 132, 1);&quot;&gt;string&lt;/span&gt;&lt;span style=&quot;font-family: Menlo, Monaco, &amp;quot;Courier New&amp;quot;, monospace; white-space: pre; color: rgb(166, 38, 164);&quot;&gt;&amp;amp;&lt;/span&gt;&lt;span style=&quot;background-color: initial;&quot;&gt;): bool&lt;/span&gt;" style="text;strokeColor=none;fillColor=none;align=left;verticalAlign=top;spacingLeft=4;spacingRight=4;overflow=hidden;rotatable=0;points=[[0,0.5],[1,0.5]];portConstraint=eastwest;whiteSpace=wrap;html=1;" parent="1U5wIqQ8QYXrG_4uOh2t-27" vertex="1">
          <mxGeometry y="60" width="480" height="26" as="geometry" />
        </mxCell>
        <mxCell id="1U5wIqQ8QYXrG_4uOh2t-38" value="&lt;div style=&quot;color: rgb(56, 58, 66); background-color: rgb(199, 237, 204); font-family: Menlo, Monaco, &amp;quot;Courier New&amp;quot;, monospace; font-weight: normal; line-height: 18px; white-space: pre;&quot;&gt;&lt;div style=&quot;line-height: 18px;&quot;&gt;&lt;span style=&quot;color: #c18401;&quot;&gt;WorkerChannelManager&lt;/span&gt;&lt;/div&gt;&lt;/div&gt;" style="swimlane;fontStyle=1;align=center;verticalAlign=top;childLayout=stackLayout;horizontal=1;startSize=26;horizontalStack=0;resizeParent=1;resizeParentMax=0;resizeLast=0;collapsible=1;marginBottom=0;whiteSpace=wrap;html=1;" parent="WIyWlLk6GJQsqaUBKTNV-1" vertex="1">
          <mxGeometry x="1260" y="600" width="710" height="86" as="geometry" />
        </mxCell>
        <mxCell id="1U5wIqQ8QYXrG_4uOh2t-39" value="+&amp;nbsp;&lt;span style=&quot;color: rgb(228, 86, 73); background-color: rgb(199, 237, 204); font-family: Menlo, Monaco, &amp;quot;Courier New&amp;quot;, monospace; white-space: pre;&quot;&gt;channel_map_dbd_&lt;/span&gt;&lt;span style=&quot;background-color: initial;&quot;&gt;:&amp;nbsp;&lt;/span&gt;&lt;span style=&quot;background-color: rgb(199, 237, 204); color: rgb(56, 58, 66); font-family: Menlo, Monaco, &amp;quot;Courier New&amp;quot;, monospace; white-space: pre;&quot;&gt;butil::&lt;/span&gt;&lt;span style=&quot;font-family: Menlo, Monaco, &amp;quot;Courier New&amp;quot;, monospace; white-space: pre; color: rgb(193, 132, 1);&quot;&gt;DoublyBufferedData&lt;/span&gt;&lt;span style=&quot;font-family: Menlo, Monaco, &amp;quot;Courier New&amp;quot;, monospace; white-space: pre; color: rgb(166, 38, 164);&quot;&gt;&amp;lt;&lt;/span&gt;&lt;span style=&quot;background-color: rgb(199, 237, 204); color: rgb(56, 58, 66); font-family: Menlo, Monaco, &amp;quot;Courier New&amp;quot;, monospace; white-space: pre;&quot;&gt;std::&lt;/span&gt;&lt;span style=&quot;font-family: Menlo, Monaco, &amp;quot;Courier New&amp;quot;, monospace; white-space: pre; color: rgb(193, 132, 1);&quot;&gt;unordered_map&lt;/span&gt;&lt;span style=&quot;font-family: Menlo, Monaco, &amp;quot;Courier New&amp;quot;, monospace; white-space: pre; color: rgb(166, 38, 164);&quot;&gt;&amp;lt;&lt;/span&gt;&lt;span style=&quot;background-color: rgb(199, 237, 204); color: rgb(56, 58, 66); font-family: Menlo, Monaco, &amp;quot;Courier New&amp;quot;, monospace; white-space: pre;&quot;&gt;std::&lt;/span&gt;&lt;span style=&quot;font-family: Menlo, Monaco, &amp;quot;Courier New&amp;quot;, monospace; white-space: pre; color: rgb(193, 132, 1);&quot;&gt;string&lt;/span&gt;&lt;span style=&quot;background-color: rgb(199, 237, 204); color: rgb(56, 58, 66); font-family: Menlo, Monaco, &amp;quot;Courier New&amp;quot;, monospace; white-space: pre;&quot;&gt;, std::&lt;/span&gt;&lt;span style=&quot;font-family: Menlo, Monaco, &amp;quot;Courier New&amp;quot;, monospace; white-space: pre; color: rgb(193, 132, 1);&quot;&gt;shared_ptr&lt;/span&gt;&lt;span style=&quot;font-family: Menlo, Monaco, &amp;quot;Courier New&amp;quot;, monospace; white-space: pre; color: rgb(166, 38, 164);&quot;&gt;&amp;lt;&lt;/span&gt;&lt;span style=&quot;background-color: rgb(199, 237, 204); color: rgb(56, 58, 66); font-family: Menlo, Monaco, &amp;quot;Courier New&amp;quot;, monospace; white-space: pre;&quot;&gt;brpc::&lt;/span&gt;&lt;span style=&quot;font-family: Menlo, Monaco, &amp;quot;Courier New&amp;quot;, monospace; white-space: pre; color: rgb(193, 132, 1);&quot;&gt;Channel&lt;/span&gt;&lt;span style=&quot;font-family: Menlo, Monaco, &amp;quot;Courier New&amp;quot;, monospace; white-space: pre; color: rgb(166, 38, 164);&quot;&gt;&amp;gt;&amp;gt;&amp;gt;&lt;/span&gt;" style="text;strokeColor=none;fillColor=none;align=left;verticalAlign=top;spacingLeft=4;spacingRight=4;overflow=hidden;rotatable=0;points=[[0,0.5],[1,0.5]];portConstraint=eastwest;whiteSpace=wrap;html=1;" parent="1U5wIqQ8QYXrG_4uOh2t-38" vertex="1">
          <mxGeometry y="26" width="710" height="26" as="geometry" />
        </mxCell>
        <mxCell id="1U5wIqQ8QYXrG_4uOh2t-40" value="" style="line;strokeWidth=1;fillColor=none;align=left;verticalAlign=middle;spacingTop=-1;spacingLeft=3;spacingRight=3;rotatable=0;labelPosition=right;points=[];portConstraint=eastwest;strokeColor=inherit;" parent="1U5wIqQ8QYXrG_4uOh2t-38" vertex="1">
          <mxGeometry y="52" width="710" height="8" as="geometry" />
        </mxCell>
        <mxCell id="1U5wIqQ8QYXrG_4uOh2t-41" value="+&amp;nbsp;&lt;span style=&quot;color: rgb(64, 120, 242); background-color: rgb(199, 237, 204); font-family: Menlo, Monaco, &amp;quot;Courier New&amp;quot;, monospace; white-space: pre;&quot;&gt;GetOrCreateChannel&lt;/span&gt;&lt;span style=&quot;background-color: initial;&quot;&gt;(&lt;/span&gt;&lt;span style=&quot;background-color: rgb(199, 237, 204); color: rgb(56, 58, 66); font-family: Menlo, Monaco, &amp;quot;Courier New&amp;quot;, monospace; white-space: pre;&quot;&gt;std::&lt;/span&gt;&lt;span style=&quot;font-family: Menlo, Monaco, &amp;quot;Courier New&amp;quot;, monospace; white-space: pre; color: rgb(193, 132, 1);&quot;&gt;vector&lt;/span&gt;&lt;span style=&quot;background-color: rgb(199, 237, 204); color: rgb(56, 58, 66); font-family: Menlo, Monaco, &amp;quot;Courier New&amp;quot;, monospace; white-space: pre;&quot;&gt;&amp;lt;std::&lt;/span&gt;&lt;span style=&quot;font-family: Menlo, Monaco, &amp;quot;Courier New&amp;quot;, monospace; white-space: pre; color: rgb(193, 132, 1);&quot;&gt;string&lt;/span&gt;&lt;span style=&quot;background-color: rgb(199, 237, 204); color: rgb(56, 58, 66); font-family: Menlo, Monaco, &amp;quot;Courier New&amp;quot;, monospace; white-space: pre;&quot;&gt;&amp;gt; &lt;/span&gt;&lt;span style=&quot;background-color: rgb(199, 237, 204); color: rgb(56, 58, 66); font-family: Menlo, Monaco, &amp;quot;Courier New&amp;quot;, monospace; white-space: pre;&quot;&gt;worker_list&lt;/span&gt;&lt;span style=&quot;background-color: initial; font-family: Menlo, Monaco, &amp;quot;Courier New&amp;quot;, monospace; white-space: pre; color: rgb(166, 38, 164);&quot;&gt;&amp;amp;&lt;/span&gt;&lt;span style=&quot;background-color: initial;&quot;&gt;):&amp;nbsp;&lt;/span&gt;&lt;span style=&quot;background-color: rgb(199, 237, 204); color: rgb(56, 58, 66); font-family: Menlo, Monaco, &amp;quot;Courier New&amp;quot;, monospace; white-space: pre;&quot;&gt;std::&lt;/span&gt;&lt;span style=&quot;background-color: initial; font-family: Menlo, Monaco, &amp;quot;Courier New&amp;quot;, monospace; white-space: pre; color: rgb(193, 132, 1);&quot;&gt;shared_ptr&lt;/span&gt;&lt;span style=&quot;background-color: rgb(199, 237, 204); color: rgb(56, 58, 66); font-family: Menlo, Monaco, &amp;quot;Courier New&amp;quot;, monospace; white-space: pre;&quot;&gt;&amp;lt;brpc::&lt;/span&gt;&lt;span style=&quot;background-color: initial; font-family: Menlo, Monaco, &amp;quot;Courier New&amp;quot;, monospace; white-space: pre; color: rgb(193, 132, 1);&quot;&gt;Channel&lt;/span&gt;&lt;span style=&quot;background-color: rgb(199, 237, 204); color: rgb(56, 58, 66); font-family: Menlo, Monaco, &amp;quot;Courier New&amp;quot;, monospace; white-space: pre;&quot;&gt;&amp;gt;&lt;/span&gt;" style="text;strokeColor=none;fillColor=none;align=left;verticalAlign=top;spacingLeft=4;spacingRight=4;overflow=hidden;rotatable=0;points=[[0,0.5],[1,0.5]];portConstraint=eastwest;whiteSpace=wrap;html=1;" parent="1U5wIqQ8QYXrG_4uOh2t-38" vertex="1">
          <mxGeometry y="60" width="710" height="26" as="geometry" />
        </mxCell>
        <mxCell id="1U5wIqQ8QYXrG_4uOh2t-51" value="&lt;div class=&quot;lake-content&quot;&gt;&lt;p style=&quot;margin: 0; padding: 0; min-height: 24px&quot; class=&quot;ne-p&quot; id=&quot;ubdf1e19e&quot;&gt;&lt;span style=&quot;&quot; class=&quot;ne-text&quot;&gt;RuleManager&lt;/span&gt;&lt;/p&gt;&lt;/div&gt;" style="swimlane;fontStyle=1;align=center;verticalAlign=top;childLayout=stackLayout;horizontal=1;startSize=26;horizontalStack=0;resizeParent=1;resizeParentMax=0;resizeLast=0;collapsible=1;marginBottom=0;whiteSpace=wrap;html=1;" parent="WIyWlLk6GJQsqaUBKTNV-1" vertex="1">
          <mxGeometry x="80" y="700" width="560" height="164" as="geometry" />
        </mxCell>
        <mxCell id="1U5wIqQ8QYXrG_4uOh2t-84" value="+ config_center" style="text;strokeColor=none;fillColor=none;align=left;verticalAlign=top;spacingLeft=4;spacingRight=4;overflow=hidden;rotatable=0;points=[[0,0.5],[1,0.5]];portConstraint=eastwest;whiteSpace=wrap;html=1;" parent="1U5wIqQ8QYXrG_4uOh2t-51" vertex="1">
          <mxGeometry y="26" width="560" height="26" as="geometry" />
        </mxCell>
        <mxCell id="1U5wIqQ8QYXrG_4uOh2t-52" value="+ global_rule:&amp;nbsp;&lt;span style=&quot;color: rgb(193, 132, 1); font-family: Menlo, Monaco, &amp;quot;Courier New&amp;quot;, monospace; white-space: pre; background-color: rgb(199, 237, 204);&quot;&gt;DoublyBufferedData&amp;lt;&lt;/span&gt;vector&amp;lt;ActionConf&amp;gt;&amp;gt;" style="text;strokeColor=none;fillColor=none;align=left;verticalAlign=top;spacingLeft=4;spacingRight=4;overflow=hidden;rotatable=0;points=[[0,0.5],[1,0.5]];portConstraint=eastwest;whiteSpace=wrap;html=1;" parent="1U5wIqQ8QYXrG_4uOh2t-51" vertex="1">
          <mxGeometry y="52" width="560" height="26" as="geometry" />
        </mxCell>
        <mxCell id="1U5wIqQ8QYXrG_4uOh2t-56" value="+ table_rules:&amp;nbsp;&lt;span style=&quot;color: rgb(193, 132, 1); font-family: Menlo, Monaco, &amp;quot;Courier New&amp;quot;, monospace; white-space: pre; background-color: rgb(199, 237, 204);&quot;&gt;DoublyBufferedData&amp;lt;&lt;/span&gt;unordered_map&amp;lt;table, std::vector&amp;lt;ActionConf&amp;gt;&amp;gt;" style="text;strokeColor=none;fillColor=none;align=left;verticalAlign=top;spacingLeft=4;spacingRight=4;overflow=hidden;rotatable=0;points=[[0,0.5],[1,0.5]];portConstraint=eastwest;whiteSpace=wrap;html=1;" parent="1U5wIqQ8QYXrG_4uOh2t-51" vertex="1">
          <mxGeometry y="78" width="560" height="26" as="geometry" />
        </mxCell>
        <mxCell id="1U5wIqQ8QYXrG_4uOh2t-53" value="" style="line;strokeWidth=1;fillColor=none;align=left;verticalAlign=middle;spacingTop=-1;spacingLeft=3;spacingRight=3;rotatable=0;labelPosition=right;points=[];portConstraint=eastwest;strokeColor=inherit;" parent="1U5wIqQ8QYXrG_4uOh2t-51" vertex="1">
          <mxGeometry y="104" width="560" height="8" as="geometry" />
        </mxCell>
        <mxCell id="1U5wIqQ8QYXrG_4uOh2t-82" value="+ M&lt;span style=&quot;background-color: initial;&quot;&gt;atch&lt;/span&gt;(&lt;span style=&quot;background-color: rgb(199, 237, 204); color: rgb(56, 58, 66); font-family: Menlo, Monaco, &amp;quot;Courier New&amp;quot;, monospace; white-space: pre;&quot;&gt;table: &lt;/span&gt;&lt;span style=&quot;font-family: Menlo, Monaco, &amp;quot;Courier New&amp;quot;, monospace; white-space: pre; color: rgb(193, 132, 1);&quot;&gt;Table&lt;/span&gt;&lt;span style=&quot;background-color: initial;&quot;&gt;,&amp;nbsp;&lt;/span&gt;&lt;span style=&quot;color: rgb(64, 120, 242); background-color: rgb(199, 237, 204); font-family: Menlo, Monaco, &amp;quot;Courier New&amp;quot;, monospace; white-space: pre;&quot;&gt;request_type&lt;/span&gt;&lt;span style=&quot;background-color: rgb(199, 237, 204); color: rgb(56, 58, 66); font-family: Menlo, Monaco, &amp;quot;Courier New&amp;quot;, monospace; white-space: pre;&quot;&gt;: &lt;/span&gt;&lt;span style=&quot;font-family: Menlo, Monaco, &amp;quot;Courier New&amp;quot;, monospace; white-space: pre; color: rgb(193, 132, 1);&quot;&gt;RequestType&lt;/span&gt;&lt;span style=&quot;background-color: initial;&quot;&gt;): RuleActions&lt;/span&gt;" style="text;strokeColor=none;fillColor=none;align=left;verticalAlign=top;spacingLeft=4;spacingRight=4;overflow=hidden;rotatable=0;points=[[0,0.5],[1,0.5]];portConstraint=eastwest;whiteSpace=wrap;html=1;" parent="1U5wIqQ8QYXrG_4uOh2t-51" vertex="1">
          <mxGeometry y="112" width="560" height="26" as="geometry" />
        </mxCell>
        <mxCell id="1U5wIqQ8QYXrG_4uOh2t-54" value="+ UpdateFromConfigCenter()" style="text;strokeColor=none;fillColor=none;align=left;verticalAlign=top;spacingLeft=4;spacingRight=4;overflow=hidden;rotatable=0;points=[[0,0.5],[1,0.5]];portConstraint=eastwest;whiteSpace=wrap;html=1;" parent="1U5wIqQ8QYXrG_4uOh2t-51" vertex="1">
          <mxGeometry y="138" width="560" height="26" as="geometry" />
        </mxCell>
        <mxCell id="1U5wIqQ8QYXrG_4uOh2t-57" value="&lt;span style=&quot;font-weight: 400; text-align: left;&quot;&gt;ActionConf&lt;/span&gt;" style="swimlane;fontStyle=1;align=center;verticalAlign=top;childLayout=stackLayout;horizontal=1;startSize=26;horizontalStack=0;resizeParent=1;resizeParentMax=0;resizeLast=0;collapsible=1;marginBottom=0;whiteSpace=wrap;html=1;" parent="WIyWlLk6GJQsqaUBKTNV-1" vertex="1">
          <mxGeometry x="750" y="716" width="290" height="164" as="geometry" />
        </mxCell>
        <mxCell id="1U5wIqQ8QYXrG_4uOh2t-58" value="+&amp;nbsp;&lt;span style=&quot;background-color: initial;&quot;&gt;type&lt;/span&gt;: ActionType" style="text;strokeColor=none;fillColor=none;align=left;verticalAlign=top;spacingLeft=4;spacingRight=4;overflow=hidden;rotatable=0;points=[[0,0.5],[1,0.5]];portConstraint=eastwest;whiteSpace=wrap;html=1;" parent="1U5wIqQ8QYXrG_4uOh2t-57" vertex="1">
          <mxGeometry y="26" width="290" height="26" as="geometry" />
        </mxCell>
        <mxCell id="2PYGGECSQMIDWRNhGcmr-0" value="+&amp;nbsp;&lt;span style=&quot;background-color: rgb(199, 237, 204); color: rgb(56, 58, 66); font-family: Menlo, Monaco, &amp;quot;Courier New&amp;quot;, monospace; white-space: pre;&quot;&gt;request_type&lt;/span&gt;&lt;span style=&quot;background-color: initial;&quot;&gt;: &lt;/span&gt;&lt;font style=&quot;background-color: initial;&quot; face=&quot;Menlo, Monaco, Courier New, monospace&quot; color=&quot;#4078f2&quot;&gt;&lt;span style=&quot;white-space: pre;&quot;&gt;RequestType&lt;/span&gt;&lt;/font&gt;" style="text;strokeColor=none;fillColor=none;align=left;verticalAlign=top;spacingLeft=4;spacingRight=4;overflow=hidden;rotatable=0;points=[[0,0.5],[1,0.5]];portConstraint=eastwest;whiteSpace=wrap;html=1;" vertex="1" parent="1U5wIqQ8QYXrG_4uOh2t-57">
          <mxGeometry y="52" width="290" height="26" as="geometry" />
        </mxCell>
        <mxCell id="2PYGGECSQMIDWRNhGcmr-6" value="+ &lt;font face=&quot;Menlo, Monaco, Courier New, monospace&quot; color=&quot;#383a42&quot;&gt;&lt;span style=&quot;white-space: pre; background-color: rgb(199, 237, 204);&quot;&gt;cluster&lt;/span&gt;&lt;/font&gt;&lt;span style=&quot;background-color: initial;&quot;&gt;: &lt;/span&gt;&lt;font style=&quot;background-color: initial;&quot; face=&quot;Menlo, Monaco, Courier New, monospace&quot; color=&quot;#4078f2&quot;&gt;&lt;span style=&quot;white-space: pre;&quot;&gt;string&lt;/span&gt;&lt;/font&gt;" style="text;strokeColor=none;fillColor=none;align=left;verticalAlign=top;spacingLeft=4;spacingRight=4;overflow=hidden;rotatable=0;points=[[0,0.5],[1,0.5]];portConstraint=eastwest;whiteSpace=wrap;html=1;" vertex="1" parent="1U5wIqQ8QYXrG_4uOh2t-57">
          <mxGeometry y="78" width="290" height="26" as="geometry" />
        </mxCell>
        <mxCell id="2PYGGECSQMIDWRNhGcmr-1" value="+&amp;nbsp;&lt;span style=&quot;color: rgb(228, 86, 73); background-color: rgb(199, 237, 204); font-family: Menlo, Monaco, &amp;quot;Courier New&amp;quot;, monospace; white-space: pre;&quot;&gt;weight_sum/&lt;/span&gt;&lt;span style=&quot;color: rgb(228, 86, 73); font-family: Menlo, Monaco, &amp;quot;Courier New&amp;quot;, monospace; white-space: pre; background-color: rgb(199, 237, 204);&quot;&gt;weight&lt;/span&gt;&lt;span style=&quot;color: rgba(0, 0, 0, 0); font-family: monospace; font-size: 0px; text-wrap: nowrap;&quot;&gt;%3CmxGraphModel%3E%3Croot%3E%3CmxCell%20id%3D%220%22%2F%3E%3CmxCell%20id%3D%221%22%20parent%3D%220%22%2F%3E%3CmxCell%20id%3D%222%22%20value%3D%22%2B%26amp%3Bnbsp%3B%26lt%3Bspan%20style%3D%26quot%3Bcolor%3A%20rgb(228%2C%2086%2C%2073)%3B%20background-color%3A%20rgb(199%2C%20237%2C%20204)%3B%20font-family%3A%20Menlo%2C%20Monaco%2C%20%26amp%3Bquot%3BCourier%20New%26amp%3Bquot%3B%2C%20monospace%3B%20white-space%3A%20pre%3B%26quot%3B%26gt%3Bweight_sum_%26lt%3B%2Fspan%26gt%3B%26lt%3Bspan%20style%3D%26quot%3Bbackground-color%3A%20initial%3B%26quot%3B%26gt%3B%3A%26amp%3Bnbsp%3B%26lt%3B%2Fspan%26gt%3B%26lt%3Bspan%20style%3D%26quot%3Bcolor%3A%20rgb(166%2C%2038%2C%20164)%3B%20background-color%3A%20rgb(199%2C%20237%2C%20204)%3B%20font-family%3A%20Menlo%2C%20Monaco%2C%20%26amp%3Bquot%3BCourier%20New%26amp%3Bquot%3B%2C%20monospace%3B%20white-space%3A%20pre%3B%26quot%3B%26gt%3Bint%26lt%3B%2Fspan%26gt%3B%22%20style%3D%22text%3BstrokeColor%3Dnone%3BfillColor%3Dnone%3Balign%3Dleft%3BverticalAlign%3Dtop%3BspacingLeft%3D4%3BspacingRight%3D4%3Boverflow%3Dhidden%3Brotatable%3D0%3Bpoints%3D%5B%5B0%2C0.5%5D%2C%5B1%2C0.5%5D%5D%3BportConstraint%3Deastwest%3BwhiteSpace%3Dwrap%3Bhtml%3D1%3B%22%20vertex%3D%221%22%20parent%3D%221%22%3E%3CmxGeometry%20x%3D%22750%22%20y%3D%22820%22%20width%3D%22290%22%20height%3D%2226%22%20as%3D%22geometry%22%2F%3E%3C%2FmxCell%3E%3C%2Froot%3E%3C%2FmxGraphModel%3E&lt;/span&gt;&lt;span style=&quot;background-color: initial;&quot;&gt;:&amp;nbsp;&lt;/span&gt;&lt;span style=&quot;color: rgb(166, 38, 164); background-color: rgb(199, 237, 204); font-family: Menlo, Monaco, &amp;quot;Courier New&amp;quot;, monospace; white-space: pre;&quot;&gt;int&lt;/span&gt;" style="text;strokeColor=none;fillColor=none;align=left;verticalAlign=top;spacingLeft=4;spacingRight=4;overflow=hidden;rotatable=0;points=[[0,0.5],[1,0.5]];portConstraint=eastwest;whiteSpace=wrap;html=1;" vertex="1" parent="1U5wIqQ8QYXrG_4uOh2t-57">
          <mxGeometry y="104" width="290" height="26" as="geometry" />
        </mxCell>
        <mxCell id="1U5wIqQ8QYXrG_4uOh2t-59" value="" style="line;strokeWidth=1;fillColor=none;align=left;verticalAlign=middle;spacingTop=-1;spacingLeft=3;spacingRight=3;rotatable=0;labelPosition=right;points=[];portConstraint=eastwest;strokeColor=inherit;" parent="1U5wIqQ8QYXrG_4uOh2t-57" vertex="1">
          <mxGeometry y="130" width="290" height="8" as="geometry" />
        </mxCell>
        <mxCell id="1U5wIqQ8QYXrG_4uOh2t-60" value="+Match(&lt;span style=&quot;color: rgb(64, 120, 242); background-color: rgb(199, 237, 204); font-family: Menlo, Monaco, &amp;quot;Courier New&amp;quot;, monospace; white-space: pre;&quot;&gt;request_type&lt;/span&gt;&lt;span style=&quot;background-color: rgb(199, 237, 204); color: rgb(56, 58, 66); font-family: Menlo, Monaco, &amp;quot;Courier New&amp;quot;, monospace; white-space: pre;&quot;&gt;: &lt;/span&gt;&lt;span style=&quot;font-family: Menlo, Monaco, &amp;quot;Courier New&amp;quot;, monospace; white-space: pre; color: rgb(193, 132, 1);&quot;&gt;RequestType&lt;/span&gt;): string" style="text;strokeColor=none;fillColor=none;align=left;verticalAlign=top;spacingLeft=4;spacingRight=4;overflow=hidden;rotatable=0;points=[[0,0.5],[1,0.5]];portConstraint=eastwest;whiteSpace=wrap;html=1;" parent="1U5wIqQ8QYXrG_4uOh2t-57" vertex="1">
          <mxGeometry y="138" width="290" height="26" as="geometry" />
        </mxCell>
        <mxCell id="1U5wIqQ8QYXrG_4uOh2t-61" value="&lt;div class=&quot;lake-content&quot;&gt;&lt;span class=&quot;ne-text&quot;&gt;RuleActions&lt;/span&gt;&lt;/div&gt;" style="swimlane;fontStyle=1;align=center;verticalAlign=top;childLayout=stackLayout;horizontal=1;startSize=26;horizontalStack=0;resizeParent=1;resizeParentMax=0;resizeLast=0;collapsible=1;marginBottom=0;whiteSpace=wrap;html=1;" parent="WIyWlLk6GJQsqaUBKTNV-1" vertex="1">
          <mxGeometry x="745" y="940" width="300" height="86" as="geometry" />
        </mxCell>
        <mxCell id="1U5wIqQ8QYXrG_4uOh2t-62" value="+&amp;nbsp;&lt;span style=&quot;background-color: initial;&quot;&gt;type&lt;/span&gt;: ActionType" style="text;strokeColor=none;fillColor=none;align=left;verticalAlign=top;spacingLeft=4;spacingRight=4;overflow=hidden;rotatable=0;points=[[0,0.5],[1,0.5]];portConstraint=eastwest;whiteSpace=wrap;html=1;" parent="1U5wIqQ8QYXrG_4uOh2t-61" vertex="1">
          <mxGeometry y="26" width="300" height="26" as="geometry" />
        </mxCell>
        <mxCell id="1U5wIqQ8QYXrG_4uOh2t-73" value="+&amp;nbsp;&lt;span style=&quot;font-size: 14px; background-color: initial;&quot;&gt;targets_cluster&lt;/span&gt;: vector&amp;lt;string, string&amp;gt;" style="text;strokeColor=none;fillColor=none;align=left;verticalAlign=top;spacingLeft=4;spacingRight=4;overflow=hidden;rotatable=0;points=[[0,0.5],[1,0.5]];portConstraint=eastwest;whiteSpace=wrap;html=1;" parent="1U5wIqQ8QYXrG_4uOh2t-61" vertex="1">
          <mxGeometry y="52" width="300" height="26" as="geometry" />
        </mxCell>
        <mxCell id="1U5wIqQ8QYXrG_4uOh2t-63" value="" style="line;strokeWidth=1;fillColor=none;align=left;verticalAlign=middle;spacingTop=-1;spacingLeft=3;spacingRight=3;rotatable=0;labelPosition=right;points=[];portConstraint=eastwest;strokeColor=inherit;" parent="1U5wIqQ8QYXrG_4uOh2t-61" vertex="1">
          <mxGeometry y="78" width="300" height="8" as="geometry" />
        </mxCell>
        <mxCell id="1U5wIqQ8QYXrG_4uOh2t-69" value="&lt;span style=&quot;text-align: left;&quot;&gt;ActionType&lt;/span&gt;" style="swimlane;fontStyle=0;childLayout=stackLayout;horizontal=1;startSize=26;fillColor=none;horizontalStack=0;resizeParent=1;resizeParentMax=0;resizeLast=0;collapsible=1;marginBottom=0;whiteSpace=wrap;html=1;" parent="WIyWlLk6GJQsqaUBKTNV-1" vertex="1">
          <mxGeometry x="1090" y="742" width="140" height="52" as="geometry" />
        </mxCell>
        <mxCell id="1U5wIqQ8QYXrG_4uOh2t-70" value="+enum{Split/Copy}" style="text;strokeColor=none;fillColor=none;align=left;verticalAlign=top;spacingLeft=4;spacingRight=4;overflow=hidden;rotatable=0;points=[[0,0.5],[1,0.5]];portConstraint=eastwest;whiteSpace=wrap;html=1;" parent="1U5wIqQ8QYXrG_4uOh2t-69" vertex="1">
          <mxGeometry y="26" width="140" height="26" as="geometry" />
        </mxCell>
        <mxCell id="1U5wIqQ8QYXrG_4uOh2t-74" value="Use" style="endArrow=open;endSize=12;dashed=1;html=1;rounded=0;exitX=1.002;exitY=0.269;exitDx=0;exitDy=0;exitPerimeter=0;entryX=0.003;entryY=0.192;entryDx=0;entryDy=0;entryPerimeter=0;" parent="WIyWlLk6GJQsqaUBKTNV-1" source="1U5wIqQ8QYXrG_4uOh2t-54" target="1U5wIqQ8QYXrG_4uOh2t-62" edge="1">
          <mxGeometry width="160" relative="1" as="geometry">
            <mxPoint x="590" y="890" as="sourcePoint" />
            <mxPoint x="750" y="890" as="targetPoint" />
          </mxGeometry>
        </mxCell>
        <mxCell id="1U5wIqQ8QYXrG_4uOh2t-75" value="1" style="endArrow=open;html=1;endSize=12;startArrow=diamondThin;startSize=14;startFill=1;edgeStyle=orthogonalEdgeStyle;align=left;verticalAlign=bottom;rounded=0;exitX=1;exitY=0.5;exitDx=0;exitDy=0;entryX=0;entryY=0.885;entryDx=0;entryDy=0;entryPerimeter=0;" parent="WIyWlLk6GJQsqaUBKTNV-1" source="1U5wIqQ8QYXrG_4uOh2t-52" target="1U5wIqQ8QYXrG_4uOh2t-58" edge="1">
          <mxGeometry x="-1" y="3" relative="1" as="geometry">
            <mxPoint x="590" y="890" as="sourcePoint" />
            <mxPoint x="750" y="890" as="targetPoint" />
          </mxGeometry>
        </mxCell>
        <mxCell id="1U5wIqQ8QYXrG_4uOh2t-88" style="edgeStyle=orthogonalEdgeStyle;rounded=0;orthogonalLoop=1;jettySize=auto;html=1;entryX=0.5;entryY=0;entryDx=0;entryDy=0;strokeColor=default;" parent="WIyWlLk6GJQsqaUBKTNV-1" source="zkfFHV4jXpPFQw0GAbJ--20" target="1U5wIqQ8QYXrG_4uOh2t-10" edge="1">
          <mxGeometry relative="1" as="geometry" />
        </mxCell>
        <mxCell id="1U5wIqQ8QYXrG_4uOh2t-89" style="edgeStyle=orthogonalEdgeStyle;rounded=0;orthogonalLoop=1;jettySize=auto;html=1;entryX=0;entryY=0.5;entryDx=0;entryDy=0;" parent="WIyWlLk6GJQsqaUBKTNV-1" source="zkfFHV4jXpPFQw0GAbJ--20" target="1U5wIqQ8QYXrG_4uOh2t-39" edge="1">
          <mxGeometry relative="1" as="geometry" />
        </mxCell>
        <mxCell id="1U5wIqQ8QYXrG_4uOh2t-90" style="edgeStyle=orthogonalEdgeStyle;rounded=0;orthogonalLoop=1;jettySize=auto;html=1;entryX=0;entryY=0.25;entryDx=0;entryDy=0;" parent="WIyWlLk6GJQsqaUBKTNV-1" source="zkfFHV4jXpPFQw0GAbJ--19" target="1U5wIqQ8QYXrG_4uOh2t-27" edge="1">
          <mxGeometry relative="1" as="geometry" />
        </mxCell>
        <mxCell id="2PYGGECSQMIDWRNhGcmr-2" style="edgeStyle=orthogonalEdgeStyle;rounded=0;orthogonalLoop=1;jettySize=auto;html=1;entryX=0;entryY=0.5;entryDx=0;entryDy=0;" edge="1" parent="WIyWlLk6GJQsqaUBKTNV-1" source="2PYGGECSQMIDWRNhGcmr-0" target="1U5wIqQ8QYXrG_4uOh2t-70">
          <mxGeometry relative="1" as="geometry" />
        </mxCell>
      </root>
    </mxGraphModel>
  </diagram>
</mxfile>
